<?xml version="1.0" encoding="UTF-8" standalone="no"?>
<svg
   width="29.2208"
   height="29.22085"
   viewBox="0 0 29.2208 29.22085"
   fill="none"
   version="1.1"
   id="svg6"
   sodipodi:docname="favicon.svg"
   inkscape:version="1.4.3 (0d15f75042, 2025-12-25)"
   xmlns:inkscape="http://www.inkscape.org/namespaces/inkscape"
   xmlns:sodipodi="http://sodipodi.sourceforge.net/DTD/sodipodi-0.dtd"
   xmlns="http://www.w3.org/2000/svg"
   xmlns:svg="http://www.w3.org/2000/svg">
  <defs
     id="defs6" />
  <sodipodi:namedview
     id="namedview6"
     pagecolor="#ffffff"
     bordercolor="#000000"
     borderopacity="0.25"
     inkscape:showpageshadow="2"
     inkscape:pageopacity="0.0"
     inkscape:pagecheckerboard="0"
     inkscape:deskcolor="#d1d1d1"
     inkscape:zoom="18.896226"
     inkscape:cx="-23.89366"
     inkscape:cy="13.600599"
     inkscape:window-width="2560"
     inkscape:window-height="1351"
     inkscape:window-x="0"
     inkscape:window-y="0"
     inkscape:window-maximized="1"
     inkscape:current-layer="svg6" />
  <g
     id="g6"
     transform="translate(-76.7792,-2.35425)">
    <path
       d="M 91.3896,31.5751 C 99.4587,31.5751 106,25.0338 106,16.9647 106,8.89557 99.4587,2.35425 91.3896,2.35425 c -8.0691,0 -14.6104,6.54132 -14.6104,14.61045 0,8.0691 6.5413,14.6104 14.6104,14.6104 z"
       fill="#114f9e"
       id="path1" />
    <path
       d="m 101.706,15.0367 c -0.461,-0.571 -1.169,-0.8643 -2.1077,-0.8643 H 94.2249 V 8.41195 c 0,-0.99723 -0.2894,-1.73636 -0.8642,-2.19391 C 92.864,5.82305 92.1875,5.6197 91.3467,5.6197 c -0.8409,0 -1.4744,0.19944 -1.9671,0.59834 -0.5749,0.45755 -0.8682,1.19668 -0.8682,2.19391 v 5.76045 h -5.3303 c -0.9386,0 -1.6464,0.2894 -2.1079,0.8643 -0.3989,0.4967 -0.5983,1.1458 -0.5983,1.928 0,0.7821 0.1955,1.4235 0.5827,1.928 0.3167,0.4145 0.9385,0.9073 2.1235,0.9073 h 5.3303 v 5.7174 c 0,0.9973 0.2933,1.7364 0.8642,2.1939 0.4928,0.3989 1.1576,0.5984 1.9711,0.5984 0.8134,0 1.5173,-0.1995 2.014,-0.5984 0.5709,-0.4575 0.8642,-1.1966 0.8642,-2.1939 V 19.8 h 5.3734 c 1.1847,0 1.8107,-0.4928 2.1277,-0.9073 0.387,-0.5045 0.578,-1.1537 0.578,-1.928 0,-0.7743 -0.199,-1.4313 -0.598,-1.9319 z"
       fill="#ffffff"
       id="path2" />
  </g>
</svg>
